<svg width="401" height="209" viewBox="0 0 401 209" fill="none" xmlns="http://www.w3.org/2000/svg">
<path d="M72.0395 198.186H35.6213L31.4014 207.701H0.120605L32.9611 138.972H75.7087L110.659 207.701H76.3508L72.0395 198.186ZM53.601 158.094L44.0609 179.248H63.3248L53.601 158.094Z" fill="black"/>
<path d="M105.799 184.883V184.051H141.208C141.392 187.285 142.859 192.458 154.877 192.458H155.243C166.251 192.458 168.453 189.779 168.453 186.915V186.731C168.453 183.959 167.169 181.557 154.234 181.188L140.658 180.818C113.321 179.987 106.9 170.287 106.9 159.479V158.648C106.9 146.546 115.981 137.77 148.363 137.77H158.454C193.863 137.77 202.027 148.024 202.027 159.387V160.033H167.169C166.985 157.631 165.609 153.659 154.051 153.659H153.592C142.951 153.659 141.483 155.507 141.483 158.001V158.093C141.483 160.772 143.868 162.528 155.427 162.805L168.453 163.082C194.78 163.728 204.504 170.102 204.504 184.051V185.345C204.504 197.261 197.257 208.994 159.83 208.994H149.464C109.744 208.994 105.799 193.751 105.799 184.883Z" fill="black"/>
<path d="M234.318 160.857H204.871V139.333H294.77V160.857H265.324V208.062H234.318V160.857Z" fill="black"/>
<path d="M347.058 208.995C302.476 208.995 296.147 188.209 296.147 174.538V171.766C296.147 157.91 302.018 137.679 347.058 137.679H350.452C394.026 137.679 399.805 156.709 399.897 166.224V167.517H368.249C367.79 165.854 365.864 158.002 348.343 158.002C331.372 158.002 328.07 165.577 328.07 172.32V173.429C328.07 179.988 331.739 188.486 348.434 188.486C366.323 188.486 367.974 179.895 368.249 178.325H399.897V180.265C399.897 189.688 393.934 208.995 350.452 208.995H347.058Z" fill="black"/>
<path d="M66.2674 53.6737L42.8111 111.954C41.4933 115.229 44.1958 118.71 47.6689 118.212L156.915 102.563L185.259 31.1323L74.597 47.1086C70.8585 47.6486 67.6862 50.1489 66.2674 53.6737Z" fill="#3246A9"/>
<path d="M153.088 20.8374L126.933 85.8233L226.832 71.1366C231.573 70.4398 235.589 67.2579 237.377 62.7819L260.21 5.62572C261.375 2.7087 258.966 -0.38466 255.875 0.0602672L162.404 13.4991C158.223 14.1004 154.675 16.8954 153.088 20.8374Z" fill="#465AE5"/>
<path d="M126.933 85.8227L156.915 102.562L165.826 80.105L126.933 85.8227Z" fill="#1E2D6E"/>
</svg>
