<svg width="130" height="70" viewBox="0 0 130 70" fill="none" xmlns="http://www.w3.org/2000/svg">
<path d="M23.3919 65.5951H11.5477L10.1754 68.6682H0L10.682 46.4705H24.5847L35.9515 68.6682H24.7921L23.3905 65.5951H23.3919ZM17.3947 52.6445L14.2924 59.4768H20.5582L17.3947 52.6445Z" fill="white"/>
<path d="M34.3418 61.2999V61.0313H45.8589C45.9188 62.0752 46.3962 63.7467 50.3043 63.7467H50.4226C54.0023 63.7467 54.7191 62.881 54.7191 61.9555V61.8956C54.7191 61.0007 54.3016 60.2255 50.0942 60.1058L45.6794 59.9861C36.7886 59.7189 34.6995 56.5845 34.6995 53.0939V52.8253C34.6995 48.9171 37.6529 46.082 48.1846 46.082H51.4665C62.9836 46.082 65.6391 49.3931 65.6391 53.0633V53.2721H54.3016C54.2417 52.4968 53.795 51.2136 50.0357 51.2136H49.8868C46.4254 51.2136 45.948 51.8107 45.948 52.6165V52.6457C45.948 53.5114 46.7246 54.0779 50.4825 54.167L54.7191 54.2561C63.2828 54.4662 66.445 56.5247 66.445 61.0285V61.4461C66.445 65.2944 64.0873 69.0843 51.9146 69.0843H48.5437C35.6236 69.0843 34.3418 64.1615 34.3418 61.2972V61.2999Z" fill="white"/>
<path d="M76.1448 53.4208H66.5664V46.4688H95.8067V53.4208H86.2283V68.6665H76.1434V53.4208H76.1448Z" fill="white"/>
<path d="M112.814 69.085C98.3133 69.085 96.2549 62.371 96.2549 57.9562V57.0613C96.2549 52.5853 98.1644 46.0508 112.814 46.0508H113.918C128.091 46.0508 129.97 52.197 130 55.27V55.6876H119.707C119.558 55.1504 118.931 52.6145 113.232 52.6145C107.533 52.6145 106.639 55.0613 106.639 57.2394V57.5971C106.639 59.7154 107.832 62.4601 113.263 62.4601C119.08 62.4601 119.618 59.6848 119.707 59.1782H130V59.8045C130 62.8484 128.06 69.0836 113.918 69.0836H112.814V69.085Z" fill="white"/>
<path d="M22.6856 17.7909L13.4678 40.7082L51.571 35.3679L40.8222 30.3713L47.3232 14.3086L22.6856 17.7909Z" fill="white"/>
<path d="M53.897 4.97707L44.5566 28.0238L79.5381 22.9159L88.7573 0L53.897 4.97707Z" fill="white"/>
</svg>
