<svg width="68" height="68" viewBox="0 0 68 68" fill="none" xmlns="http://www.w3.org/2000/svg">
<path d="M52.4925 0H15.5075C11.3946 0 7.45026 1.63382 4.54204 4.54204C1.63382 7.45026 0 11.3946 0 15.5075V52.4925C0 56.6053 1.63382 60.5497 4.54204 63.458C7.45026 66.3662 11.3946 68 15.5075 68H52.4925C56.6053 68 60.5497 66.3662 63.458 63.458C66.3662 60.5497 68 56.6053 68 52.4925V15.5075C68 11.3946 66.3662 7.45026 63.458 4.54204C60.5497 1.63382 56.6053 0 52.4925 0ZM22.991 54.8952C23.0019 55.085 22.9739 55.275 22.9087 55.4536C22.8435 55.6322 22.7425 55.7956 22.6119 55.9338C22.4813 56.0719 22.3238 56.1819 22.1491 56.257C21.9744 56.332 21.7862 56.3706 21.5961 56.3703H15.3889C15.0146 56.3611 14.6588 56.2055 14.398 55.9369C14.1371 55.6682 13.9921 55.308 13.9941 54.9335V29.1179C13.9889 28.9316 14.0212 28.7461 14.089 28.5724C14.1568 28.3987 14.2587 28.2404 14.3888 28.1067C14.5188 27.9731 14.6743 27.8669 14.8461 27.7944C15.0179 27.722 15.2025 27.6846 15.3889 27.6847H21.5961C21.7826 27.6846 21.9671 27.722 22.1389 27.7944C22.3107 27.8669 22.4662 27.9731 22.5962 28.1067C22.7263 28.2404 22.8282 28.3987 22.896 28.5724C22.9638 28.7461 22.9961 28.9316 22.991 29.1179V54.8952ZM18.3774 22.2552C17.7054 22.2501 17.0409 22.1128 16.422 21.851C15.8031 21.5891 15.2417 21.208 14.7701 20.7292C14.2985 20.2504 13.9257 19.6835 13.6732 19.0607C13.4207 18.4379 13.2933 17.7714 13.2984 17.0994C13.3034 16.4274 13.4407 15.7629 13.7026 15.1439C13.9644 14.525 14.3456 13.9637 14.8243 13.492C15.3031 13.0204 15.8701 12.6477 16.4929 12.3952C17.1157 12.1426 17.7821 12.0153 18.4542 12.0203C19.7881 12.0637 21.0522 12.6266 21.9768 13.589C22.9015 14.5514 23.4134 15.8371 23.4034 17.1717C23.3934 18.5062 22.8622 19.7841 21.9233 20.7325C20.9843 21.6809 19.7118 22.2248 18.3774 22.2482M56.0983 54.8533C56.0966 55.2057 55.9583 55.5436 55.7124 55.796C55.4665 56.0484 55.1323 56.1955 54.7801 56.2064H48.2277C47.8749 56.1955 47.5402 56.0479 47.2942 55.7948C47.0482 55.5416 46.9103 55.2028 46.9095 54.8498V42.9097C46.9095 41.1278 47.4535 35.1577 42.1809 35.1577C38.0695 35.1577 37.257 39.3424 37.1001 41.2045V55.1218C37.1003 55.4754 36.9627 55.8151 36.7167 56.069C36.4706 56.3229 36.1353 56.471 35.7819 56.4818H29.4248C29.0647 56.4809 28.7197 56.3372 28.4654 56.0823C28.2111 55.8273 28.0683 55.4819 28.0683 55.1218V28.9924C28.0792 28.639 28.2273 28.3038 28.4811 28.0577C28.735 27.8116 29.0747 27.6741 29.4283 27.6743H35.7819C36.1355 27.6741 36.4752 27.8116 36.7291 28.0577C36.983 28.3038 37.1311 28.639 37.1419 28.9924V31.2416C38.0696 29.8838 39.3505 28.805 40.8462 28.1217C42.342 27.4383 43.996 27.1763 45.6297 27.3639C56.2133 27.3639 56.175 37.25 56.175 42.8714L56.0983 54.8533Z" fill="black"/>
</svg>
