<svg width="347" height="96" viewBox="0 0 347 96" fill="none" xmlns="http://www.w3.org/2000/svg">
<path d="M1.48242 95.0986H0.0234375L5.36719 81.2031H6.81738L1.48242 95.0986ZM15.6738 95.0986H14.2148L19.5586 81.2031H21.0088L15.6738 95.0986ZM31.8848 95.0986H30.4258L35.7695 81.2031H37.2197L31.8848 95.0986ZM48.0957 95.0986H46.6367L51.9805 81.2031H53.4307L48.0957 95.0986ZM64.3066 95.0986H62.8477L68.1914 81.2031H69.6416L64.3066 95.0986ZM80.5176 95.0986H79.0586L84.4023 81.2031H85.8525L80.5176 95.0986ZM96.7246 95.0986H95.2656L100.609 81.2031H102.06L96.7246 95.0986ZM112.936 95.0986H111.477L116.82 81.2031H118.271L112.936 95.0986ZM129.146 95.0986H127.688L133.031 81.2031H134.481L129.146 95.0986ZM145.357 95.0986H143.898L149.242 81.2031H150.692L145.357 95.0986ZM161.568 95.0986H160.109L165.453 81.2031H166.903L161.568 95.0986ZM177.779 95.0986H176.32L181.664 81.2031H183.114L177.779 95.0986ZM193.99 95.0986H192.531L197.875 81.2031H199.325L193.99 95.0986ZM210.201 95.0986H208.742L214.086 81.2031H215.536L210.201 95.0986ZM226.412 95.0986H224.953L230.297 81.2031H231.747L226.412 95.0986ZM242.623 95.0986H241.164L246.508 81.2031H247.958L242.623 95.0986ZM258.834 95.0986H257.375L262.719 81.2031H264.169L258.834 95.0986ZM275.041 95.0986H273.582L278.926 81.2031H280.376L275.041 95.0986ZM291.252 95.0986H289.793L295.137 81.2031H296.587L291.252 95.0986ZM308.482 95.0986H307.023L312.367 81.2031H313.817L308.482 95.0986ZM12.2949 68.0986H10.8359L16.1797 54.2031H17.6299L12.2949 68.0986ZM319.295 68.0986H317.836L323.18 54.2031H324.63L319.295 68.0986ZM116.331 40.5156C125.487 40.5156 127.111 44.7158 127.111 48.1318V48.6357C127.111 52.1077 125.655 56.4199 116.331 56.4199H114.371C105.635 56.4199 103.535 52.1357 103.535 48.6357V48.1318C103.535 44.6599 105.607 40.5157 114.343 40.5156H116.331ZM161.281 40.5156C170.101 40.5157 171.753 44.9678 171.753 48.6357V49.6719H155.261C155.625 51.4358 157.137 52.6113 160.581 52.6113H160.609C164.753 52.6112 165.425 51.0718 165.509 50.6797H171.669V50.708C171.669 52.7521 170.324 56.4199 161.337 56.4199H159.741C151.705 56.4199 149.129 52.6677 149.129 48.7197V48.1035C149.129 44.2396 151.425 40.5156 159.573 40.5156H161.281ZM217.984 40.5156C226.804 40.5157 228.456 44.9678 228.456 48.6357V49.6719H211.964C212.328 51.4358 213.84 52.6113 217.284 52.6113H217.312C221.456 52.6112 222.128 51.0718 222.212 50.6797H228.372V50.708C228.372 52.7521 227.027 56.4199 218.04 56.4199H216.444C208.408 56.4199 205.832 52.6677 205.832 48.7197V48.1035C205.832 44.2396 208.128 40.5156 216.276 40.5156H217.984ZM271.694 40.5156C279.338 40.5157 281.13 42.8961 281.13 45.248V45.4434H274.774C274.718 44.8833 274.381 43.9033 271.05 43.9033H271.022C268.027 43.9033 267.439 44.2956 267.438 45.0234V45.0801C267.439 45.7518 267.971 46.2272 270.603 46.2832L273.29 46.3398C280.262 46.4798 281.69 48.0755 281.69 51.0713V51.2393C281.69 54.0113 280.066 56.4199 271.75 56.4199H270.603C261.811 56.4199 260.914 53.0033 260.914 51.0713V50.9033H267.354C267.382 51.4353 267.55 52.9472 271.218 52.9473H271.274C274.746 52.9472 275.166 52.2475 275.166 51.5195V51.4639C275.166 50.7079 274.802 50.2035 271.862 50.1475L269.174 50.0918C262.622 49.9238 261.054 47.5996 261.054 45.3877V45.2197C261.054 42.9237 262.314 40.5156 270.574 40.5156H271.694ZM80.7822 40.5996C84.0022 40.5996 85.8787 41.9157 86.8027 43.5957C87.9508 42.5037 90.3587 40.5996 94.3906 40.5996H94.6143C99.6262 40.5996 101.559 43.6515 101.559 46.4795V56H95.2588V48.5518C95.2588 46.3678 94.3065 44.7999 91.8428 44.7998C89.1828 44.7998 87.5303 46.5357 87.5303 48.8877V56H81.2305V48.5518C81.2305 46.3678 80.2501 44.7998 77.7861 44.7998C75.1263 44.8 73.4746 46.5358 73.4746 48.8877V56H67.2305V40.9355H73.4189V43.54C74.063 42.84 76.2469 40.5996 80.5869 40.5996H80.7822ZM141.752 40.5996C146.12 40.5996 147.885 43.4555 147.885 47.3193V48.1875H141.864C141.864 46.2275 141.024 44.5752 138.672 44.5752H138.645C136.545 44.5752 135.396 46.2558 135.396 48.2158V56H129.152V40.9355H135.341V43.5957C135.901 42.7556 137.665 40.5996 141.444 40.5996H141.752ZM196.517 40.5996C201.752 40.5997 203.852 43.5676 203.853 46.4795V56H197.553V48.5518C197.553 46.2558 196.264 44.7999 193.521 44.7998C190.721 44.7998 188.9 46.4237 188.9 48.8877V56H182.656V40.9355H188.845V43.5117C189.601 42.7835 191.813 40.5996 196.32 40.5996H196.517ZM238.101 50.5674L241.488 40.9355H248.04L251.54 50.5674L254.872 40.9355H260.696L254.872 56H248.265L244.568 46.0312L240.872 56H234.404L228.16 40.9355H234.656L238.101 50.5674ZM115.352 44.5195C111.068 44.5195 109.919 46.4233 109.919 48.3271V48.4678C109.919 50.2317 111.096 52.3594 115.352 52.3594C119.635 52.3592 120.783 50.2317 120.783 48.4678V48.3271C120.783 46.4513 119.579 44.5195 115.379 44.5195H115.352ZM160.385 44.0156C157.249 44.0157 155.849 44.9676 155.373 46.5635H165.453C165.061 44.9676 163.549 44.0157 160.413 44.0156H160.385ZM217.088 44.0156C213.952 44.0157 212.552 44.9676 212.076 46.5635H222.156C221.764 44.9676 220.252 44.0157 217.116 44.0156H217.088ZM23.1074 41.0986H21.6484L26.9922 27.2031H28.4424L23.1074 41.0986ZM330.107 41.0986H328.648L333.992 27.2031H335.442L330.107 41.0986ZM33.916 14.0986H32.457L37.8008 0.203125H39.251L33.916 14.0986ZM48.6738 14.0986H47.2148L52.5586 0.203125H54.0088L48.6738 14.0986ZM64.8848 14.0986H63.4258L68.7695 0.203125H70.2197L64.8848 14.0986ZM81.0957 14.0986H79.6367L84.9805 0.203125H86.4307L81.0957 14.0986ZM97.3066 14.0986H95.8477L101.191 0.203125H102.642L97.3066 14.0986ZM113.518 14.0986H112.059L117.402 0.203125H118.853L113.518 14.0986ZM129.725 14.0986H128.266L133.609 0.203125H135.06L129.725 14.0986ZM145.936 14.0986H144.477L149.82 0.203125H151.271L145.936 14.0986ZM162.146 14.0986H160.688L166.031 0.203125H167.481L162.146 14.0986ZM178.357 14.0986H176.898L182.242 0.203125H183.692L178.357 14.0986ZM194.568 14.0986H193.109L198.453 0.203125H199.903L194.568 14.0986ZM210.779 14.0986H209.32L214.664 0.203125H216.114L210.779 14.0986ZM226.99 14.0986H225.531L230.875 0.203125H232.325L226.99 14.0986ZM243.201 14.0986H241.742L247.086 0.203125H248.536L243.201 14.0986ZM259.412 14.0986H257.953L263.297 0.203125H264.747L259.412 14.0986ZM275.623 14.0986H274.164L279.508 0.203125H280.958L275.623 14.0986ZM291.834 14.0986H290.375L295.719 0.203125H297.169L291.834 14.0986ZM308.041 14.0986H306.582L311.926 0.203125H313.376L308.041 14.0986ZM324.252 14.0986H322.793L328.137 0.203125H329.587L324.252 14.0986ZM340.916 14.0986H339.457L344.801 0.203125H346.251L340.916 14.0986Z" fill="#0ADF0A"/>
</svg>
