<svg width="62" height="42" viewBox="0 0 62 42" fill="none" xmlns="http://www.w3.org/2000/svg">
<path d="M8.10967 8.69295H7.36695V2.13183H8.10967V8.69295ZM14.1838 6.91431C14.1838 8.04013 13.2434 8.77225 11.9383 8.77225C10.9393 8.78435 9.9746 8.40792 9.24778 7.72238L9.70905 7.1779C10.0027 7.47912 10.354 7.71813 10.742 7.88066C11.13 8.04319 11.5467 8.12591 11.9674 8.1239C12.8492 8.1239 13.4327 7.65481 13.4327 7.00702C13.4327 6.39552 13.1049 6.04817 11.72 5.75108C10.2089 5.42049 9.51192 4.91454 9.51192 3.85574C9.51192 2.82262 10.4227 2.06482 11.6736 2.06482C12.5177 2.04047 13.3412 2.32795 13.9867 2.87232L13.5668 3.44193C13.0403 2.98472 12.367 2.73219 11.6697 2.73048C10.8298 2.73048 10.2675 3.19901 10.2675 3.78872C10.2675 4.40412 10.6076 4.75147 12.0556 5.0441C13.5037 5.33672 14.1967 5.8812 14.1967 6.90203L14.1838 6.91431ZM20.8002 2.02293C20.355 2.01975 19.9136 2.1055 19.5019 2.27513C19.0903 2.44477 18.7166 2.69488 18.4029 3.01081C18.0904 3.32654 17.8444 3.70172 17.6794 4.11417C17.5144 4.52662 17.4338 4.96797 17.4423 5.41211V5.43333C17.4437 5.87318 17.5318 6.30843 17.7019 6.7141C17.8719 7.11976 18.1203 7.48785 18.433 7.79721C19.0651 8.42388 19.9202 8.7738 20.8103 8.77001C21.7003 8.7671 22.553 8.41192 23.182 7.78213C23.8086 7.15272 24.1597 6.30027 24.1581 5.41211C24.1691 4.96815 24.0898 4.5266 23.9252 4.11415C23.7606 3.70169 23.514 3.32692 23.2004 3.01249C22.8864 2.69714 22.512 2.44844 22.0996 2.28128C21.6871 2.11412 21.2452 2.03195 20.8002 2.03969V2.02293ZM23.3774 5.45008C23.3924 5.79731 23.3368 6.14398 23.214 6.46909C23.0911 6.7942 22.9035 7.091 22.6626 7.34152C22.4218 7.59292 22.1327 7.79321 21.8127 7.93041C21.4928 8.06762 21.1484 8.13893 20.8002 8.14009C20.45 8.13708 20.1038 8.06398 19.7823 7.9251C19.4607 7.78622 19.1701 7.58438 18.9278 7.33147C18.6861 7.07892 18.4976 6.78035 18.3735 6.4535C18.2495 6.12665 18.1924 5.7782 18.2057 5.42886C18.1903 5.08147 18.2455 4.73456 18.3681 4.40915C18.4907 4.08374 18.678 3.7866 18.9189 3.53575C19.1599 3.28412 19.4494 3.08382 19.7698 2.94688C20.0902 2.80994 20.435 2.73918 20.7835 2.73885C21.1335 2.74158 21.4794 2.81428 21.8008 2.95267C22.1223 3.09106 22.4129 3.29234 22.6554 3.54468C22.8969 3.79703 23.0853 4.09533 23.2093 4.42187C23.3334 4.74842 23.3905 5.09655 23.3774 5.44562V5.45008ZM15.4012 2.14858H16.144V8.69295H15.4096L15.4012 2.14858ZM2.86703 8.7393L0.037974 2.13239H0.87731L1.29726 3.11078L3.23225 7.78492L3.41654 8.23223L3.34562 7.51296L5.54532 2.13183H6.34277L3.52599 8.7393H2.86703ZM30.2027 2.13295H30.9287V8.69351H30.3367L25.6939 2.79302L26.1138 3.75131V8.69295H25.3621V2.13183H26.0591L30.5087 7.77655L30.2021 6.97295L30.2027 2.13295ZM51.0147 9.38709H51.72V10.0812H51.023L51.0147 9.38709ZM52.4085 9.38709H53.1055V10.0812H52.408L52.4085 9.38709ZM38.0561 1.43601H37.3591V0.750805H38.0561V1.43601ZM55.0985 6.29445C55.377 6.48858 55.6885 6.63032 56.0177 6.71272C56.3787 6.8032 56.7496 6.84823 57.1218 6.84674H57.3066L57.5417 6.35699V7.04331C57.5566 7.18941 57.5357 7.33693 57.4809 7.47314C57.426 7.60936 57.3388 7.73016 57.2268 7.82513C56.9658 7.99592 56.6568 8.07816 56.3455 8.05968C56.1522 8.06137 55.9593 8.04171 55.7703 8.00104C55.5678 7.9474 55.3698 7.87756 55.1784 7.79218L54.9645 8.4612C55.1961 8.54906 55.4325 8.62165 55.6737 8.67899C55.8778 8.72925 56.0848 8.75438 56.2947 8.75438C56.5615 8.77842 56.8303 8.74815 57.0851 8.66542C57.3398 8.58269 57.5751 8.44919 57.7768 8.273C58.0963 7.91839 58.2621 7.45209 58.2387 6.9763V2.13965H57.1218C56.7225 2.136 56.3253 2.19826 55.9463 2.32393C55.6144 2.43147 55.3057 2.60024 55.036 2.8215C54.7843 3.02867 54.582 3.28946 54.4439 3.58481C54.3058 3.88017 54.2355 4.20263 54.238 4.52866C54.2291 4.89388 54.3083 5.25519 54.4692 5.58355C54.6188 5.86947 54.8344 6.11574 55.0985 6.30282V6.29445ZM55.0985 3.84233C55.2002 3.63683 55.3431 3.45477 55.5185 3.30623C55.8831 3.01026 56.3372 2.84649 56.8068 2.84161H57.9321L57.5373 3.03874V6.16042H56.8325C56.5821 6.16198 56.333 6.12525 56.0937 6.05152C55.875 5.98176 55.6702 5.87401 55.4889 5.73321C55.3117 5.59756 55.1682 5.4229 55.0695 5.2228C54.9664 5.00592 54.9146 4.76821 54.9182 4.5281C54.9154 4.28964 54.9718 4.05398 55.0818 3.84233H55.0985ZM39.4337 1.44495H38.7368V0.750805H39.4337V1.44495ZM60.0022 8.76331C59.8101 8.76331 59.6197 8.73651 59.4354 8.68401L59.6202 8.01835C59.682 8.03697 59.745 8.05093 59.809 8.06024H59.9771C60.0888 8.06526 60.1999 8.04683 60.3043 8.00607C60.3886 7.96807 60.4579 7.90328 60.5015 7.82178C60.5579 7.71959 60.593 7.60734 60.6064 7.49118C60.6306 7.32626 60.6418 7.1604 60.6399 6.99361V2.13965H61.333V7.00199C61.3352 7.24808 61.3142 7.49193 61.2699 7.73355C61.2336 7.93218 61.1579 8.12152 61.0471 8.29031C60.9425 8.44413 60.7973 8.56591 60.6277 8.64213C60.4288 8.72724 60.214 8.76857 59.9977 8.76331H60.0022ZM58.2347 1.44495H56.7069V0.876454C56.696 0.75691 56.7093 0.636404 56.7461 0.522132C56.7828 0.407859 56.8422 0.302162 56.9207 0.211351C57.0039 0.137477 57.101 0.0809121 57.2063 0.0449568C57.3115 0.00900158 57.4229 -0.00562319 57.5339 0.00193615H58.0164V0.508442H57.5378C57.4616 0.498921 57.3847 0.520006 57.3239 0.567078C57.2824 0.626932 57.263 0.69942 57.2692 0.772026V0.926714H58.2264L58.2347 1.44495ZM37.5529 8.66726H38.997V8.14791C38.997 8.1736 39.0261 8.19817 39.0428 8.21939C39.1478 8.37296 39.293 8.49414 39.4628 8.57121C39.6621 8.65888 39.8788 8.70021 40.0966 8.69239H53.1094V2.13965H52.4124V7.99769H40.1133C40.0017 8.00216 39.89 7.98373 39.7861 7.94296C39.7015 7.90399 39.6312 7.83956 39.5851 7.75868C39.5302 7.65628 39.4959 7.54418 39.484 7.42864C39.4604 7.26366 39.4492 7.09716 39.4505 6.93051V2.13965H37.5697C37.1405 2.13594 36.7149 2.21801 36.3179 2.38104C35.9209 2.54406 35.5604 2.78476 35.2577 3.089C34.9559 3.39294 34.7182 3.75438 34.5587 4.1519C34.3991 4.54942 34.3211 4.97492 34.329 5.40317C34.3186 5.82975 34.3947 6.25401 34.5527 6.65039C34.7107 7.04676 34.9473 7.40705 35.2482 7.70953C35.5494 8.01317 35.9088 8.25299 36.3048 8.41466C36.7007 8.57633 37.1252 8.65655 37.5529 8.65051V8.66726ZM35.0723 5.36967C35.0575 5.03531 35.1107 4.70142 35.2287 4.38821C35.3466 4.075 35.5269 3.78899 35.7586 3.54748C35.9906 3.30528 36.2691 3.11243 36.5774 2.98048C36.8857 2.84854 37.2175 2.78022 37.5529 2.77962H39.1813L38.7619 2.9935V6.91376C38.7612 7.15936 38.7836 7.40448 38.8289 7.64587C38.8528 7.76575 38.8892 7.88153 38.9384 7.99322H37.578C37.2392 7.99349 36.9038 7.92555 36.5918 7.79344C36.2798 7.66132 35.9976 7.46775 35.762 7.22425C35.5273 6.98099 35.3442 6.69289 35.2235 6.37721C35.1028 6.06152 35.047 5.72473 35.0595 5.38698L35.0723 5.36967ZM2.61909 41.546H2.10365L1.11241 40.2409L0.620986 40.743V41.546H0.193779V38.7678H0.621544V40.2616L2.04054 38.7678H2.55263L1.40169 39.9561L2.61909 41.546ZM3.61814 38.7678H3.18981V41.546H3.61814V38.7678ZM6.89339 38.7678V41.546H6.52817L4.89026 39.4412V41.5466H4.47032V38.7678H4.88189L6.47289 40.8139V38.7678H6.89339ZM10.1966 40.0276V41.1696C9.87218 41.4422 9.4615 41.5906 9.0378 41.5885C8.84631 41.5978 8.65497 41.5673 8.47588 41.4988C8.2968 41.4304 8.13388 41.3255 7.99743 41.1908C7.86159 41.0563 7.7552 40.895 7.68502 40.7171C7.61484 40.5393 7.5824 40.3488 7.58977 40.1577C7.5874 39.9682 7.62305 39.7801 7.6946 39.6046C7.76615 39.4291 7.87216 39.2696 8.00636 39.1358C8.14064 39.0018 8.30026 38.8958 8.4759 38.8241C8.65155 38.7524 8.83971 38.7163 9.02943 38.7181C9.41201 38.6979 9.78777 38.8252 10.0793 39.0738L9.81013 39.3916C9.58963 39.1992 9.3052 39.0962 9.01267 39.1028C8.74797 39.1196 8.50002 39.2402 8.32244 39.4373C8.14463 39.634 8.0517 39.8929 8.06388 40.1577C8.04848 40.3649 8.09909 40.5715 8.20844 40.7481C8.3178 40.9247 8.48029 41.0621 8.67258 41.1406C8.80047 41.1936 8.93784 41.2188 9.07578 41.216C9.33266 41.2193 9.58452 41.14 9.79337 40.9898V40.4001H9.05456V40.0399L10.1966 40.0276ZM11.997 38.7683H10.9683V41.5466H11.997C12.286 41.5686 12.5748 41.5005 12.8236 41.3516C13.0723 41.2026 13.2687 40.9803 13.3858 40.7151C13.502 40.4499 13.5325 40.1552 13.4731 39.8719C13.4138 39.5886 13.2675 39.3309 13.0547 39.1347C12.9132 39.0039 12.7462 38.9039 12.5641 38.8409C12.3821 38.7778 12.189 38.7531 11.997 38.7683ZM11.997 41.1657H11.3967V39.1486H11.997C12.265 39.1486 12.5225 39.2547 12.7118 39.4446C12.8055 39.5381 12.8799 39.6492 12.9307 39.7716C12.9814 39.8939 13.0076 40.025 13.0076 40.1575C13.0076 40.2899 12.9814 40.421 12.9307 40.5433C12.8799 40.6657 12.8055 40.7768 12.7118 40.8703C12.5225 41.0596 12.265 41.1657 11.997 41.1657ZM15.4934 38.7175C15.3016 38.712 15.1107 38.7452 14.9321 38.8153C14.7535 38.8853 14.591 38.9907 14.4541 39.1252C14.3175 39.2596 14.2097 39.4204 14.1372 39.5978C14.0647 39.7752 14.0291 39.9656 14.0325 40.1572C14.0305 40.446 14.1147 40.7289 14.2744 40.9697C14.4341 41.2104 14.6619 41.3981 14.9288 41.5086C15.1955 41.6201 15.4893 41.6502 15.773 41.5949C16.0568 41.5397 16.3178 41.4016 16.5231 41.1981C16.7289 40.995 16.8694 40.7352 16.9267 40.4518C16.9841 40.1685 16.9557 39.8745 16.8452 39.6074C16.7347 39.3402 16.547 39.1121 16.3063 38.9521C16.0655 38.7921 15.7825 38.7075 15.4934 38.7091V38.7175ZM16.5008 40.1572C16.5099 40.3615 16.456 40.5636 16.3466 40.7364C16.2371 40.9092 16.0773 41.0442 15.8888 41.1233C15.7637 41.1763 15.6292 41.2035 15.4934 41.2031C15.2885 41.2004 15.0891 41.1364 14.9208 41.0195C14.7526 40.9026 14.6231 40.738 14.5491 40.547C14.5 40.4201 14.4772 40.2847 14.482 40.1488C14.4713 39.944 14.5238 39.7409 14.6324 39.567C14.7409 39.3931 14.9004 39.2568 15.0891 39.1765C15.2142 39.1224 15.3487 39.0945 15.4856 39.0945C15.6906 39.0975 15.8901 39.1614 16.0586 39.2782C16.2272 39.3949 16.3572 39.5592 16.4321 39.7501C16.4813 39.8774 16.5047 40.0125 16.5008 40.1488V40.1572ZM20.3926 38.7678V41.546H19.9637V39.4122L19.0155 40.8267L18.0706 39.4206V41.546H17.6512V38.7678H18.1298L19.0233 40.1488L19.9134 38.7678H20.3926ZM23.9688 38.7175C23.7768 38.7121 23.5857 38.7453 23.4069 38.8154C23.228 38.8854 23.0651 38.9908 22.9279 39.1252C22.7911 39.2596 22.6829 39.4203 22.6099 39.5977C22.537 39.7751 22.5008 39.9654 22.5035 40.1572C22.5015 40.4458 22.5856 40.7285 22.7451 40.9691C22.9045 41.2097 23.1321 41.3974 23.3987 41.508C23.6652 41.6198 23.9589 41.6501 24.2426 41.5951C24.5264 41.5402 24.7875 41.4024 24.993 41.1992C25.1978 40.9966 25.3379 40.7376 25.3953 40.4553C25.4528 40.1729 25.4251 39.8799 25.3158 39.6132C25.2053 39.3466 25.0184 39.1185 24.7786 38.9578C24.5389 38.797 24.2569 38.7107 23.9683 38.7097L23.9688 38.7175ZM24.9718 40.1572C24.9808 40.3608 24.9273 40.5623 24.8185 40.7347C24.7097 40.9071 24.5508 41.0421 24.3631 41.1216C24.2385 41.1751 24.1044 41.2028 23.9688 41.2031C23.8326 41.2014 23.6981 41.1727 23.573 41.1185C23.448 41.0643 23.335 40.9859 23.2406 40.8876C23.1466 40.7895 23.0731 40.6736 23.0244 40.5468C22.9756 40.4199 22.9527 40.2846 22.9569 40.1488C22.9462 39.944 22.9987 39.7409 23.1073 39.567C23.2158 39.3931 23.3753 39.2568 23.564 39.1765C23.6891 39.1224 23.8242 39.0945 23.9605 39.0945C24.1653 39.0972 24.3647 39.1612 24.533 39.2781C24.7013 39.395 24.8307 39.5596 24.9048 39.7506C24.9539 39.8774 24.9763 40.0131 24.9718 40.1488V40.1572ZM26.5544 39.1486V40.0019H27.9985V40.3828H26.5544V41.546H26.1261V38.7678H28.1828V39.1486H26.5544ZM32.2633 40.772C32.2633 41.2657 31.8769 41.6091 31.2766 41.6091C30.8593 41.6112 30.4554 41.4624 30.139 41.1903L30.3909 40.8887C30.6366 41.1138 30.9566 41.2405 31.29 41.245C31.6211 41.245 31.835 41.0898 31.835 40.8262C31.835 40.5626 31.6798 40.471 31.1593 40.3537C30.5635 40.2069 30.2357 40.0354 30.2357 39.5166C30.2438 39.343 30.3058 39.1763 30.4133 39.0396C30.5207 38.903 30.6681 38.8032 30.8349 38.7544C30.9454 38.722 31.0616 38.7119 31.1761 38.7264C31.5328 38.7181 31.8814 38.8333 32.1628 39.0526L31.9361 39.3742C31.7168 39.2006 31.4473 39.1023 31.1677 39.0939C30.8695 39.0939 30.664 39.2491 30.664 39.4792C30.664 39.7093 30.8148 39.831 31.3732 39.9645C32.0154 40.1192 32.2633 40.3454 32.2633 40.772ZM34.2866 38.7471H33.8672L32.6369 41.546H33.0569L33.3506 40.8558H34.7568L35.0466 41.546H35.4956L34.2866 38.7471ZM33.5226 40.4878L34.0727 39.2324L34.6228 40.4878H33.5226ZM38.2872 38.7678V40.3498C38.3216 40.5979 38.2707 40.8503 38.1428 41.0657C38.015 41.2811 37.8178 41.4467 37.5836 41.5354C37.4281 41.5945 37.2614 41.6182 37.0955 41.6046C36.8511 41.6259 36.6066 41.5647 36.401 41.4308C36.1955 41.2969 36.0407 41.098 35.9613 40.8658C35.9091 40.712 35.8919 40.5485 35.9111 40.3872V38.7806H36.3316V40.3666C36.3316 40.906 36.6086 41.2031 37.0955 41.2031C37.5825 41.2031 37.8511 40.8977 37.8511 40.3666V38.7594L38.2872 38.7678ZM40.1256 38.7683H39.0975V41.5466H40.1256C40.4147 41.5686 40.7035 41.5005 40.9522 41.3516C41.201 41.2026 41.3974 40.9803 41.5145 40.7151C41.6306 40.4499 41.6612 40.1552 41.6018 39.8719C41.5424 39.5886 41.3961 39.3309 41.1833 39.1347C41.0418 39.0039 40.8748 38.9039 40.6928 38.8409C40.5108 38.7778 40.3177 38.7531 40.1256 38.7683ZM40.1256 41.1657H39.5214V39.1486H40.1256C40.3937 39.1486 40.6511 39.2547 40.841 39.4446C40.9828 39.5855 41.0794 39.7653 41.1186 39.9613C41.1578 40.1573 41.1379 40.3605 41.0612 40.545C40.9845 40.7296 40.8547 40.8872 40.6882 40.9977C40.5217 41.1083 40.3255 41.1667 40.1256 41.1657ZM42.7537 38.7678H42.3253V41.546H42.7537V38.7678ZM46.5148 38.7471H46.0948L44.8651 41.546H45.2851L45.5788 40.8558H46.985L47.2748 41.546H47.7238L46.5148 38.7471ZM45.7508 40.4878L46.3009 39.2324L46.8504 40.4878H45.7508ZM49.8727 40.4833H49.9229C50.1127 40.4419 50.2822 40.3358 50.4024 40.1832C50.5226 40.0306 50.5861 39.841 50.5819 39.6468C50.5887 39.4251 50.5074 39.2099 50.3557 39.0481C50.1345 38.8557 49.8464 38.758 49.5538 38.7761H48.2945V41.5544H48.7144V40.5503H49.3946L50.0871 41.5298H50.5908L49.8727 40.4833ZM48.7435 40.1817V39.1486H49.5119C49.9318 39.1486 50.1457 39.3329 50.1457 39.659C50.1457 39.9852 49.8983 40.1823 49.5164 40.1823L48.7435 40.1817ZM52.7821 38.7471H52.3622L51.1325 41.546H51.5519L51.8462 40.8558H53.2523L53.5416 41.546H53.9912L52.7821 38.7471ZM52.0137 40.4878L52.5638 39.2324L53.1178 40.4878H52.0137ZM56.3366 40.1365L56.2489 40.1069L56.3282 40.0656C56.4469 40.0167 56.5479 39.9328 56.6176 39.825C56.6874 39.7172 56.7226 39.5908 56.7186 39.4625C56.7211 39.3782 56.7065 39.2942 56.6755 39.2157C56.6444 39.1373 56.5977 39.066 56.5382 39.0062C56.3374 38.8365 56.0785 38.7512 55.8161 38.7683H54.5569V41.5466H55.8457C56.4879 41.5466 56.8699 41.2662 56.8699 40.8016C56.873 40.6446 56.8202 40.4915 56.721 40.3697C56.6218 40.248 56.4826 40.1653 56.3282 40.1365H56.3366ZM54.9768 39.1369H55.7407C56.0808 39.1369 56.2824 39.2871 56.2824 39.5552C56.2824 39.8227 56.0725 39.9734 55.7028 39.9734H54.9768V39.1369ZM55.8502 41.1786H54.9768V40.3415H55.8161C56.3623 40.3415 56.4416 40.605 56.4416 40.7603C56.4416 41.0445 56.2277 41.1786 55.8502 41.1786ZM58.0203 38.7678H57.592V41.546H58.0203V38.7678ZM60.2373 38.7471H59.8174L58.5916 41.546H59.0115L59.3053 40.8558H60.7114L61.0013 41.546H61.4502L60.2373 38.7471ZM59.4734 40.4878L60.0229 39.2324L60.5774 40.4878H59.4734ZM44.3486 32.5132H43.9286V32.9315H44.3486V32.5132ZM39.3114 36.1029H39.7314V32.5132H39.3114V36.1029ZM4.28603 33.3878H3.86608V35.7014H2.27118V33.3878H1.6541C1.42348 33.385 1.19389 33.419 0.97392 33.4883C0.784051 33.5497 0.607583 33.6458 0.453454 33.7725C0.313844 33.887 0.199363 34.0294 0.117831 34.1914C0.039054 34.3602 -0.0010125 34.5445 0.000558433 34.7308C-0.00446753 34.9419 0.041883 35.1513 0.134584 35.3417C0.222259 35.5059 0.345675 35.6489 0.495337 35.76C0.654492 35.8739 0.83431 35.956 1.02418 36.0024C1.22969 36.0582 1.44134 36.0861 1.6541 36.0861H4.28603V33.3878ZM1.8892 35.7008H1.49439C1.35222 35.7014 1.21079 35.6804 1.075 35.6383C0.948976 35.5956 0.831138 35.5317 0.726531 35.4495C0.622125 35.3619 0.539376 35.2514 0.484742 35.1265C0.430107 35.0016 0.405066 34.8658 0.411571 34.7297C0.409767 34.5931 0.4414 34.4581 0.503713 34.3365C0.562908 34.2193 0.646116 34.1154 0.747194 34.0311C0.850195 33.9456 0.96843 33.8805 1.09566 33.839C1.23024 33.7904 1.37265 33.7664 1.51561 33.7675H1.90987L1.8892 35.7008ZM3.17362 36.9852H3.59357V36.567H3.17362V36.9852ZM2.28346 32.5121H1.86407V32.9309H2.28346V32.5121ZM26.7856 32.5121H26.3657V32.9309H26.7856V32.5121ZM3.86608 36.9852H4.28603V36.567H3.86608V36.9852ZM27.4864 32.5121H27.0671V32.9309H27.4864V32.5121ZM43.6477 32.5121H43.2272V32.9309H43.6472L43.6477 32.5121ZM1.58262 32.5121H1.16267V32.9309H1.58262V32.5121ZM28.8256 36.9852H29.2455V36.567H28.8256V36.9852ZM31.3989 33.3872H30.9789V35.7008H29.4728V33.3872H29.0529V35.7008H27.4569V33.3872H26.8269C26.5951 33.385 26.3643 33.4189 26.1428 33.4877C25.953 33.5497 25.7771 33.6463 25.6224 33.772C25.4833 33.8864 25.3705 34.0288 25.2907 34.1908C25.2119 34.3596 25.1718 34.5439 25.1734 34.7302C25.1661 34.9419 25.2125 35.1519 25.3074 35.3412C25.3934 35.5065 25.5174 35.6494 25.6682 35.7595C25.8262 35.8734 26.0043 35.9555 26.1931 36.0018C26.3997 36.0577 26.613 36.0856 26.8269 36.0856H31.3983L31.3989 33.3872ZM27.0877 35.7008H26.689C26.5467 35.7007 26.4052 35.6796 26.269 35.6383C26.1446 35.5951 26.0283 35.5313 25.925 35.4495C25.8259 35.3673 25.7457 35.2646 25.6899 35.1485C25.6306 35.0171 25.6019 34.8738 25.6062 34.7297C25.6044 34.5931 25.636 34.4581 25.6983 34.3365C25.8247 34.0995 26.0384 33.9211 26.2942 33.839C26.4288 33.7904 26.5712 33.7664 26.7141 33.7675H27.1129L27.0877 35.7008ZM29.5264 36.9852H29.9464V36.567H29.5264V36.9852ZM6.85933 33.7385C6.75881 33.6268 6.63595 33.5369 6.49801 33.4749C6.34516 33.412 6.18073 33.3821 6.01552 33.3872H5.72178V33.8055H6.07025C6.16574 33.8055 6.26012 33.8267 6.34724 33.868C6.42988 33.906 6.50304 33.9613 6.56112 34.0311C6.61696 34.0981 6.65773 34.1768 6.67839 34.2612C6.70222 34.3602 6.71339 34.4607 6.7119 34.5627V35.7215H4.84503V36.1403H7.12849V34.5253C7.12727 34.3834 7.10603 34.2424 7.06539 34.1065C7.02621 33.9783 6.96037 33.86 6.87217 33.7591L6.85933 33.7385ZM37.7578 35.7215H36.054L36.7549 34.0478C36.6464 33.9538 36.5329 33.8658 36.4148 33.7842C36.2959 33.7036 36.171 33.6323 36.0412 33.5709C35.918 33.5087 35.7893 33.46 35.6553 33.4246C35.5293 33.3905 35.3994 33.3723 35.2689 33.3704C35.137 33.372 35.0058 33.3902 34.8785 33.4246C34.7517 33.4596 34.6281 33.5058 34.5094 33.5625C34.3776 33.6232 34.2529 33.6958 34.1352 33.7803C34.0194 33.8611 33.9088 33.9492 33.8041 34.0439L34.5094 35.7176H32.9983V33.3872H32.5783V36.1861C32.5839 36.2822 32.5839 36.3784 32.5783 36.4748C32.5687 36.5408 32.5473 36.6045 32.5152 36.663C32.488 36.708 32.4488 36.7444 32.4018 36.768C32.3417 36.7912 32.2776 36.8025 32.2131 36.8015H32.1165L32.0076 36.7764L31.9026 37.1611C32.0098 37.1894 32.1189 37.2034 32.2298 37.203C32.3538 37.2075 32.4772 37.1846 32.5912 37.136C32.6894 37.083 32.7721 37.0053 32.8302 36.9098C32.8927 36.8132 32.9357 36.7055 32.9564 36.5915C32.9824 36.4538 32.9949 36.3145 32.9938 36.1738V36.09H38.1571V32.5127H37.7372L37.7578 35.7215ZM34.9165 35.7215L34.2866 34.1858C34.4273 34.0646 34.5881 33.9685 34.7613 33.9015C34.9238 33.8429 35.0963 33.8133 35.2694 33.8138C35.4537 33.8138 35.6358 33.849 35.8061 33.9183C35.9708 33.9825 36.1244 34.073 36.2595 34.1863L35.6302 35.722L34.9165 35.7215ZM30.9918 37.0059H31.4112V36.5876H30.9918V37.0059ZM60.9041 36.1236H61.324V32.5127H60.9041V36.1236ZM59.3343 35.7047H57.9572C58.0415 35.5199 58.0845 35.3183 58.0834 35.115C58.0839 34.917 58.0454 34.7207 57.97 34.5376C57.8971 34.3657 57.7917 34.2094 57.6596 34.0774C57.528 33.9442 57.3709 33.8388 57.1977 33.7675C57.014 33.6921 56.8172 33.6538 56.6186 33.6547C56.4247 33.6526 56.2327 33.6926 56.0557 33.772C55.8858 33.8441 55.7318 33.9493 55.6028 34.0813C55.4337 34.2558 55.3104 34.4693 55.2438 34.703C55.1771 34.9366 55.1692 35.1831 55.2208 35.4205C55.2406 35.518 55.2698 35.613 55.3085 35.7053H54.0498C54.1327 35.5195 54.1757 35.3184 54.176 35.115C54.1751 34.9171 54.1366 34.7211 54.0626 34.5376C53.9897 34.3657 53.8843 34.2094 53.7521 34.0774C53.6205 33.9442 53.4635 33.8388 53.2903 33.7675C53.1064 33.6921 52.9094 33.6537 52.7107 33.6547C52.5169 33.6527 52.3251 33.6927 52.1483 33.772C51.9782 33.8441 51.824 33.9492 51.6948 34.0813C51.5258 34.2558 51.4024 34.4693 51.3358 34.703C51.2691 34.9366 51.2613 35.1831 51.3129 35.4205C51.333 35.518 51.3624 35.613 51.4011 35.7053H50.1418V32.5127H49.7224V35.7008H48.4632V35.0899C48.4632 34.941 48.4434 34.7945 48.404 34.6504C48.3648 34.5147 48.2959 34.3894 48.2021 34.2837C48.1084 34.178 47.9923 34.0946 47.8623 34.0395C47.7051 33.9765 47.5367 33.9466 47.3675 33.9518H45.5917L46.3472 32.5127H45.9273L45.155 33.9479C45.165 34.0264 45.186 34.1016 45.2181 34.1735C45.2478 34.2394 45.2869 34.2993 45.3353 34.3533H47.3842C47.4959 34.3516 47.6076 34.3717 47.7115 34.4119C47.7954 34.4434 47.8703 34.495 47.9296 34.5622C47.9889 34.6294 48.0308 34.7101 48.0516 34.7973C48.0709 34.8937 48.0806 34.9912 48.0806 35.0899V35.7008H44.3703V33.3872H43.7354C43.5048 33.3845 43.2752 33.4184 43.0552 33.4877C42.8642 33.5497 42.6866 33.6463 42.5303 33.772C42.3927 33.8879 42.2799 34.0303 42.1986 34.1908C42.1198 34.3596 42.0797 34.5439 42.0813 34.7302C42.0768 34.9413 42.1226 35.1508 42.2153 35.3412C42.3036 35.5054 42.4264 35.6483 42.5766 35.7595C42.7347 35.8723 42.9128 35.9549 43.1016 36.0018C43.3089 36.0577 43.5202 36.0856 43.7354 36.0856H51.7105C51.8449 36.2291 52.0076 36.3434 52.1882 36.4213C52.3689 36.4991 52.5637 36.5388 52.7604 36.5379C52.9649 36.5396 53.1676 36.4997 53.3562 36.4206C53.5388 36.3441 53.7036 36.2302 53.8393 36.0856H55.6023C55.7367 36.2291 55.8992 36.3433 56.0798 36.4211C56.2603 36.499 56.455 36.5387 56.6516 36.5379C56.8576 36.5396 57.0615 36.4999 57.2519 36.4206C57.4328 36.3425 57.5953 36.2291 57.7305 36.0856H59.7705V32.5127H59.3505L59.3343 35.7047ZM43.9498 35.7047H43.555C43.4129 35.7053 43.2714 35.6843 43.1356 35.6422C43.0096 35.5997 42.8918 35.536 42.7872 35.454C42.6337 35.3219 42.528 35.143 42.4863 34.9449C42.4446 34.7468 42.4693 34.5405 42.5565 34.3578C42.6823 34.1202 42.8962 33.9413 43.1524 33.8596C43.2864 33.8111 43.4288 33.787 43.5723 33.7887H43.9666L43.9498 35.7047ZM53.7052 35.5294C53.6526 35.6537 53.5755 35.7661 53.4785 35.86C53.383 35.9549 53.2685 36.0292 53.1429 36.0778C53.0089 36.1291 52.8665 36.1548 52.7229 36.1526C52.579 36.1557 52.4359 36.1287 52.303 36.0733C52.1808 36.0213 52.0708 35.9443 51.9802 35.8471C51.8845 35.7502 51.8092 35.635 51.7587 35.5086C51.7081 35.3821 51.6834 35.2467 51.6859 35.1105C51.6842 34.9676 51.7099 34.8257 51.7619 34.6923C51.8121 34.5694 51.8847 34.4555 51.9757 34.3572C52.0685 34.2625 52.1782 34.1859 52.2991 34.1316C52.4314 34.0752 52.5744 34.0467 52.719 34.0478C52.8625 34.0467 53.0055 34.0735 53.1384 34.1277C53.2624 34.1796 53.3763 34.2533 53.4746 34.3455C53.569 34.4421 53.6444 34.5555 53.6969 34.68C53.7494 34.8135 53.7762 34.9553 53.7767 35.0983C53.7767 35.2418 53.7488 35.3842 53.6929 35.5171L53.7052 35.5294ZM57.5842 35.5165C57.5312 35.6406 57.4541 35.7529 57.3575 35.847C57.2609 35.9411 57.1466 36.0152 57.0213 36.0649C56.8876 36.1167 56.7452 36.1423 56.6019 36.1403C56.4634 36.1452 56.3254 36.1205 56.1972 36.0679C56.069 36.0152 55.9536 35.9357 55.8586 35.8348C55.763 35.7379 55.6877 35.6227 55.6373 35.4962C55.5868 35.3697 55.5622 35.2344 55.5648 35.0983C55.5629 34.9551 55.5885 34.8129 55.6402 34.6794C55.6931 34.5566 55.7646 34.4451 55.8547 34.3449C55.9474 34.25 56.0568 34.174 56.1775 34.1193C56.3104 34.0623 56.4533 34.0339 56.5974 34.0355C56.7415 34.0339 56.8839 34.0612 57.0173 34.1148C57.1413 34.1668 57.2552 34.2405 57.353 34.3326C57.4473 34.4292 57.5227 34.5432 57.5752 34.6677C57.6836 34.9358 57.6836 35.2356 57.5752 35.5042L57.5842 35.5165ZM20.7952 35.6802H20.1614C19.9715 35.6885 19.7822 35.6539 19.6074 35.5796C19.474 35.5138 19.3641 35.4085 19.2924 35.2781C19.3163 35.1552 19.3274 35.0311 19.326 34.9056V33.6379H18.9272V34.9894C18.9373 35.1904 18.8697 35.3886 18.7385 35.5422C18.6661 35.6155 18.5787 35.6721 18.4823 35.7082C18.3858 35.7442 18.2827 35.7589 18.18 35.7511C17.9694 35.7573 17.7641 35.6841 17.6048 35.5461C17.5376 35.4825 17.4822 35.4074 17.4412 35.3244C17.4 35.2395 17.3771 35.1468 17.3742 35.0525V33.6379H16.9548V35.0229C16.9582 35.129 16.9397 35.2345 16.9001 35.3328C16.8665 35.4108 16.8164 35.4806 16.7534 35.5376C16.6904 35.5945 16.6159 35.6373 16.5349 35.6628C16.4517 35.6879 16.3654 35.7007 16.2785 35.7008H15.523V33.6379H15.1036V35.7008H13.0044L13.7097 34.0272C13.5994 33.9338 13.4846 33.8458 13.3657 33.7636C13.2481 33.6831 13.1245 33.6118 12.996 33.5503C12.8728 33.4873 12.7442 33.4386 12.6101 33.4039C12.3565 33.3315 12.0876 33.3315 11.8339 33.4039C11.6995 33.4404 11.5692 33.4877 11.443 33.5458C11.3133 33.6064 11.1897 33.6793 11.0739 33.7636C10.9555 33.8433 10.8434 33.9311 10.7377 34.0272L11.4469 35.7008H10.067V33.3872H9.4248C9.19383 33.3837 8.96392 33.419 8.74462 33.4916C8.55529 33.556 8.37902 33.6538 8.22415 33.7803C8.08096 33.893 7.9646 34.036 7.88351 34.1992C7.80309 34.3684 7.76121 34.5543 7.76232 34.7425C7.75674 34.9542 7.80309 35.1636 7.89635 35.3535C7.98235 35.5193 8.10577 35.6628 8.25766 35.7723C8.41682 35.884 8.59663 35.9655 8.7865 36.0102C8.9948 36.0627 9.20924 36.0895 9.42424 36.09H9.66382V36.2029C9.67205 36.2872 9.65997 36.3722 9.62859 36.4509C9.59721 36.5296 9.54744 36.5997 9.48344 36.6552C9.33266 36.7524 9.15452 36.7993 8.97526 36.7892C8.8632 36.79 8.75263 36.7773 8.64354 36.7512C8.52699 36.7221 8.41319 36.6829 8.30345 36.634L8.18171 37.0193C8.33249 37.0733 8.47247 37.115 8.60166 37.1444C8.71931 37.1727 8.83844 37.1866 8.95906 37.1863C9.11023 37.1983 9.2623 37.1801 9.40633 37.1326C9.55036 37.0852 9.68347 37.0094 9.79784 36.9098C9.89018 36.8092 9.96154 36.6913 10.0078 36.5628C10.054 36.4343 10.0741 36.2979 10.067 36.1615V36.09H16.2992C16.4734 36.0929 16.6456 36.0523 16.8002 35.972C16.9548 35.8916 17.087 35.7741 17.1849 35.6299C17.2804 35.7868 17.4166 35.9158 17.5797 36.0018C17.7651 36.0968 17.9717 36.1425 18.18 36.1358C18.3906 36.1431 18.6005 36.1018 18.7926 36.0147C18.9602 35.9309 19.097 35.7958 19.183 35.6293C19.2184 35.6893 19.2589 35.7451 19.3047 35.7969C19.3583 35.8579 19.4213 35.9069 19.4935 35.9437C19.581 35.9914 19.6733 36.0262 19.7705 36.0482C19.8662 36.069 19.9628 36.0802 20.0603 36.0817H21.2191V32.5127H20.7991L20.7952 35.6802ZM9.64204 35.6802H9.22265C9.08027 35.6807 8.93865 35.6594 8.8027 35.617C8.67579 35.5786 8.55748 35.516 8.45423 35.4328C8.35623 35.3529 8.27629 35.2532 8.21969 35.1401C8.16012 35.0087 8.13128 34.8655 8.13536 34.7213C8.13356 34.5847 8.16519 34.4497 8.22751 34.3282C8.2888 34.2096 8.37308 34.1044 8.47545 34.0188C8.57988 33.935 8.69771 33.868 8.82392 33.8222C8.9585 33.7748 9.10091 33.7524 9.24331 33.7552H9.66326L9.64204 35.6802ZM11.8546 35.6802L11.2291 34.1444C11.3687 34.0216 11.529 33.925 11.7038 33.8596C12.0423 33.7376 12.4137 33.7436 12.7481 33.8764C12.9117 33.9406 13.0636 34.0311 13.1976 34.1444L12.5722 35.6802H11.8546ZM22.3488 36.0984H22.7682V32.5127H22.3488V36.0984ZM53.5584 12.224C48.6385 12.224 45.0662 15.9225 45.0662 20.4375V20.4833C45.0662 24.9983 48.5966 28.6511 53.512 28.6511C58.4274 28.6511 61.9998 24.9525 61.9998 20.4375V20.3917C61.9998 15.8767 58.4743 12.224 53.5584 12.224ZM58.3341 20.4833C58.3341 23.2029 56.3785 25.4294 53.5572 25.4294C50.7371 25.4294 48.7301 23.1616 48.7301 20.437V20.3917C48.7301 17.6676 50.6902 15.4456 53.5115 15.4456C56.3327 15.4456 58.3341 17.7134 58.3341 20.4375V20.4833ZM5.71676 25.3624H11.7904V28.3791H0V25.6131L5.30574 21.2785C7.28262 19.6423 8.05941 18.7678 8.05941 17.4666C8.05941 16.1654 7.16926 15.3998 5.91835 15.3998C4.66745 15.3998 3.84486 16.0817 2.66544 17.5336L0.204948 15.5713C1.77472 13.4375 3.29871 12.282 6.14452 12.282C9.44435 12.282 11.6312 14.2115 11.6312 17.1824V17.2282C11.6312 19.8807 10.2669 21.1987 7.4334 23.3749L3.96214 26.032L3.28642 26.5508L5.71676 25.3624ZM44.1632 23.4079V23.4542C44.1632 26.4502 41.9763 28.6511 38.4246 28.6511C35.5576 28.6511 33.5768 27.5174 32.2125 25.9063L34.6261 23.6134C35.7173 24.8391 36.8548 25.5216 38.471 25.5216C39.7934 25.5216 40.7254 24.7721 40.7254 23.5921V23.5464C40.7254 22.2536 39.5622 21.5254 37.6065 21.5254H36.1495L35.6039 19.3033L40.717 14.178L38.6681 15.492H33.144V12.4959H43.9107V15.1279L39.8816 18.9604C42.064 19.3368 44.1632 20.4576 44.1632 23.4079ZM27.0833 21.178C26.9096 21.0778 26.7251 20.9978 26.5332 20.9396C26.0426 20.7838 25.5224 20.7452 25.0142 20.8267C24.7896 20.8625 24.5689 20.9199 24.3553 20.9982H24.2877C24.1704 21.044 24.0565 21.0942 23.9392 21.1529C23.822 21.2115 23.7421 21.2579 23.641 21.3204C23.4188 21.4544 23.196 21.6091 22.9782 21.7727C22.8081 20.6028 22.7856 19.4162 22.9111 18.2406C23.4355 18.5712 23.2886 19.496 23.1792 19.7596C23.3956 19.5093 23.5308 19.1992 23.5668 18.8704C23.6028 18.5415 23.5379 18.2095 23.3808 17.9184C23.4683 17.9914 23.5466 18.0723 23.6159 18.1613C23.7901 18.3875 23.894 18.6594 23.9141 18.9437C23.9249 19.0624 23.9249 19.181 23.9141 19.2994C23.916 19.3258 23.916 19.3523 23.9141 19.3787C24.0234 19.1657 24.0804 18.9298 24.0804 18.6904C24.0804 18.4511 24.0234 18.2151 23.9141 18.0022C23.8376 17.8478 23.7369 17.7066 23.6159 17.5839L23.4986 17.4711L23.612 17.5046C23.7188 17.5411 23.8181 17.5926 23.9096 17.6593C24.0995 17.8017 24.2447 17.9943 24.3296 18.2155C24.3977 18.383 24.4335 18.5617 24.4346 18.7426C24.4919 18.5715 24.5122 18.3902 24.4941 18.2106C24.476 18.0311 24.4199 17.8574 24.3296 17.7012C24.225 17.53 24.081 17.3864 23.9096 17.2823C23.775 17.1986 23.6253 17.1417 23.469 17.1148H23.6075C23.708 17.114 23.8074 17.1226 23.9057 17.1405C24.0554 17.1651 24.1984 17.2203 24.3251 17.3035C24.439 17.3801 24.534 17.4822 24.6027 17.6006C24.5829 17.3851 24.4804 17.1855 24.3167 17.0439C24.1951 16.9407 24.0517 16.8662 23.8974 16.8261C23.8003 16.798 23.7001 16.7826 23.5991 16.7803C23.4729 16.7778 23.3474 16.8006 23.23 16.8473C23.3221 16.719 23.4553 16.6259 23.6075 16.5837C23.7039 16.5534 23.8049 16.5407 23.9057 16.5463C23.9902 16.5511 24.0714 16.5707 24.1492 16.6049C24.0785 16.5244 23.9947 16.4564 23.9013 16.4039C23.7326 16.3065 23.5326 16.2786 23.3438 16.3263C23.155 16.3739 22.9921 16.4933 22.8899 16.6591C22.7602 16.4295 22.6721 16.1788 22.6297 15.9186C22.5989 16.1063 22.5438 16.2892 22.4655 16.4625C22.4376 16.5295 22.4056 16.5951 22.3695 16.6591C22.2693 16.5014 22.1151 16.3856 21.9357 16.3334C21.7563 16.2813 21.564 16.2964 21.395 16.376C21.2833 16.4285 21.185 16.5067 21.1102 16.6049C21.2681 16.5393 21.4432 16.5275 21.6086 16.5713C21.7739 16.6151 21.9202 16.7121 22.0249 16.8473C21.8212 16.7749 21.6008 16.7641 21.391 16.8162C21.1813 16.8684 20.9915 16.9812 20.8455 17.1405C20.7374 17.2712 20.6716 17.4317 20.6567 17.6006C20.7031 17.5169 20.7639 17.4415 20.8371 17.3789C20.9683 17.2719 21.1207 17.1938 21.2842 17.1498C21.4477 17.1059 21.6187 17.097 21.7859 17.1237C21.5764 17.1604 21.3795 17.2495 21.2136 17.3827C21.0478 17.5159 20.9182 17.6888 20.8371 17.8854C20.7494 18.1574 20.7494 18.45 20.8371 18.722V18.6969C20.832 18.4182 20.9201 18.1458 21.0874 17.923C21.2548 17.7001 21.4918 17.5395 21.7608 17.4666C21.4823 17.6852 21.2883 17.9936 21.2117 18.3392C21.1351 18.6848 21.1808 19.0462 21.3408 19.362C21.3054 19.0941 21.3398 18.8217 21.4405 18.5711C21.5413 18.3204 21.7051 18.1 21.916 17.9312C21.758 18.2221 21.6926 18.5542 21.7286 18.8833C21.7645 19.2123 21.9 19.5225 22.117 19.7724C22.0081 19.5088 21.8613 18.584 22.3862 18.2535C22.5156 19.431 22.4987 20.62 22.336 21.7934C21.9356 21.4719 21.4919 21.2083 21.018 21.0105L20.8538 20.9563C20.4568 20.8223 20.0384 20.7626 19.6197 20.7804C19.1825 20.8016 18.7541 20.9112 18.3604 21.1026L18.2348 21.1696L18.3481 21.1361C18.7571 21.0199 19.1835 20.9775 19.6074 21.011C20.0352 21.0501 20.4529 21.1629 20.8416 21.3455C21.3833 21.6024 21.8858 21.933 22.3354 22.3284C21.8707 22.7771 21.3788 23.1965 20.8622 23.5843C20.8485 23.5965 20.8328 23.6063 20.8159 23.6134C20.7694 23.5495 20.7024 23.5035 20.6261 23.4832C20.5497 23.4629 20.4688 23.4695 20.3967 23.5018C20.3246 23.5342 20.2659 23.5904 20.2304 23.6609C20.1949 23.7315 20.1847 23.8121 20.2016 23.8892C20.2135 23.9406 20.2364 23.9868 20.2703 24.0277C20.345 24.1063 20.4439 24.1576 20.5512 24.1735C20.6584 24.1894 20.7679 24.1689 20.8622 24.1154C21.2822 23.9356 21.8317 23.3621 22.4912 22.7595L22.6587 22.6087L22.8268 22.7595C23.125 23.0315 23.402 23.2995 23.6662 23.5257C23.7711 23.6217 23.8678 23.7055 23.9644 23.7848C24.0943 23.8946 24.2343 23.9896 24.3843 24.0696C24.4786 24.1426 24.5945 24.1822 24.7138 24.1822C24.8331 24.1822 24.9489 24.1426 25.0433 24.0696L25.0723 24.04C25.1025 23.9982 25.124 23.9508 25.1355 23.9005C25.147 23.8502 25.1483 23.7982 25.1393 23.7474C25.1234 23.6826 25.0902 23.6234 25.0433 23.5759C25.0072 23.5428 24.9646 23.5177 24.9181 23.5021C24.8717 23.4866 24.8225 23.481 24.7738 23.4857C24.725 23.4905 24.6778 23.5054 24.6353 23.5296C24.5927 23.5538 24.5557 23.5867 24.5267 23.6262L24.3547 23.5212C24.2081 23.4181 24.0679 23.3062 23.9348 23.1862L23.6371 22.9231L22.9737 22.3245C23.1837 22.1491 23.3936 21.9816 23.6371 21.8224L23.9348 21.6343C24.0684 21.5542 24.2084 21.4803 24.3547 21.4126C24.5673 21.3105 24.7869 21.2268 25.0137 21.1613C25.5074 21.0197 26.0265 20.9897 26.5332 21.0736C26.7175 21.1004 26.898 21.1423 27.0749 21.1992M22.6498 29.1738L21.6524 30.1678L22.6498 31.1618L23.6472 30.1678L22.6498 29.1738ZM14.6256 23.4765L14.2637 24.5867L15.3772 24.948L15.7396 23.8379L14.6256 23.4765ZM17.8595 13.7463L17.7082 14.7012L18.6659 14.852L18.8172 13.8971L17.8595 13.7463ZM30.1184 19.6378L29.4326 20.3214L30.1184 21.0049L30.8041 20.3214L30.1184 19.6378ZM29.5454 17.3773L29.1048 18.2384L29.9693 18.6773L30.4093 17.8162L29.5454 17.3773ZM18.6648 25.7963L17.707 25.9471L17.8589 26.902L18.8167 26.7512L18.6648 25.7963ZM27.4457 13.7468L26.4885 13.8976L26.6399 14.8525L27.5981 14.7018L27.4457 13.7468ZM20.5573 26.754L19.6929 27.1924L20.1329 28.0541L20.9974 27.6152L20.5573 26.754ZM22.6509 12.1944L21.9651 12.8779L22.6509 13.5609L23.3367 12.8779L22.6509 12.1944ZM21.5485 13.3699L21.0772 14.0166L21.7256 14.4862L22.1969 13.8395L21.5485 13.3699ZM23.5824 26.1604L23.1111 26.8071L23.7594 27.2767L24.2307 26.6306L23.5824 26.1604ZM17.1223 16.8825L16.3601 17.1293L16.6075 17.8893L17.3703 17.6425L17.1223 16.8825ZM28.7005 22.7595L27.9382 23.0058L28.1856 23.7664L28.9484 23.5195L28.7005 22.7595ZM16.1495 20.7759L15.6782 21.422L16.3266 21.8923L16.7979 21.2456L16.1495 20.7759Z" fill="black"/>
</svg>
