<svg width="68" height="68" viewBox="0 0 68 68" fill="none" xmlns="http://www.w3.org/2000/svg">
<path d="M9.71429 0C4.35625 0 0 4.35625 0 9.71429V58.2857C0 63.6437 4.35625 68 9.71429 68H58.2857C63.6437 68 68 63.6437 68 58.2857V9.71429C68 4.35625 63.6437 0 58.2857 0H9.71429ZM54.8098 12.75L39.0545 30.7518L57.5875 55.25H43.0768L31.7232 40.3902L18.7152 55.25H11.5054L28.3536 35.9884L10.5795 12.75H25.4545L35.7304 26.3348L47.6 12.75H54.8098ZM49.0723 50.9393L23.2839 16.833H18.9884L45.0652 50.9393H49.0571H49.0723Z" fill="black"/>
</svg>
